<?xml version="1.0" encoding="UTF-8" standalone="no"?>
<svg
   version="1.1"
   width="105"
   height="105"
   id="svg2"
   sodipodi:docname="favicon.svg"
   inkscape:version="1.3.2 (091e20e, 2023-11-25, custom)"
   xmlns:inkscape="http://www.inkscape.org/namespaces/inkscape"
   xmlns:sodipodi="http://sodipodi.sourceforge.net/DTD/sodipodi-0.dtd"
   xmlns="http://www.w3.org/2000/svg"
   xmlns:svg="http://www.w3.org/2000/svg">
  <defs
     id="defs2" />
  <sodipodi:namedview
     id="namedview2"
     pagecolor="#ffffff"
     bordercolor="#000000"
     borderopacity="0.25"
     inkscape:showpageshadow="2"
     inkscape:pageopacity="0.0"
     inkscape:pagecheckerboard="0"
     inkscape:deskcolor="#d1d1d1"
     inkscape:zoom="6.5327024"
     inkscape:cx="32.987879"
     inkscape:cy="37.58016"
     inkscape:window-width="1920"
     inkscape:window-height="1009"
     inkscape:window-x="-8"
     inkscape:window-y="-8"
     inkscape:window-maximized="1"
     inkscape:current-layer="svg2" />
  <path
     d="m 44.89073,12.306021 c 2.792402,1.861601 5.428312,3.844954 8,6 0.724453,-0.554297 1.448906,-1.108594 2.195313,-1.679687 0.966796,-0.724454 1.933593,-1.448907 2.929687,-2.195313 0.951328,-0.719297 1.902656,-1.438594 2.882812,-2.179687 6.373293,-4.1434731 12.567077,-4.7622825 19.992188,-3.9453135 8.132991,2.1836165 14.29625,7.5135865 19.375,14.0625005 4.44914,8.042683 4.91359,16.779956 3.04297,25.71875 -2.4558,7.08705 -7.215471,11.975351 -12.41797,17.21875 -0.799219,0.836602 -1.598438,1.673203 -2.421875,2.535156 -4.894536,5.042619 -10.00304,9.644752 -15.503906,14.015625 -2.340055,1.864313 -4.640295,3.754887 -6.929688,5.679688 -1.339687,1.110865 -2.67953,2.221544 -4.019531,3.332031 -0.630593,0.537378 -1.261187,1.074756 -1.910889,1.628418 -2.531096,2.073873 -4.524964,3.614819 -7.69458,4.508301 C 48.3473,95.877689 45.610741,93.27216 42.45323,90.556021 41.750933,89.966919 41.048635,89.377818 40.325056,88.770865 38.874196,87.550463 37.428,86.324496 35.986433,85.09313 34.066044,83.45552 32.13073,81.838395 30.187605,80.227896 3.5561937,58.014123 3.5561937,58.014123 0.89072972,44.306021 0.01659572,33.60146 1.3901577,26.286894 8.2657297,17.993521 18.4855,7.0328714 31.812679,5.1960423 44.89073,12.306021 Z m -28.804687,11.90625 c -4.554603,5.840351 -5.893546,10.618548 -5.195313,18.09375 3.626068,14.987749 20.928662,26.910115 32.5625,36.1875 0.583542,0.469783 1.167085,0.939565 1.768311,1.423584 3.919127,3.342397 3.919127,3.342397 8.669189,4.388916 2.21516,-1.549701 4.08363,-3.062111 6.0625,-4.875 1.161869,-1.027051 2.324644,-2.053078 3.488281,-3.078125 0.579595,-0.51627 1.15919,-1.032539 1.756348,-1.564453 2.417069,-2.116591 4.928897,-4.107589 7.442871,-6.107422 5.073346,-4.127216 9.860546,-8.519506 14.25,-13.375 0,-0.33 0,-0.66 0,-1 -0.750234,-0.09797 -1.500469,-0.195938 -2.273438,-0.296875 -11.335866,-1.656121 -22.186867,-4.693235 -29.566406,-14.03125 -1.771189,-2.526949 -3.47719,-5.085464 -5.160156,-7.671875 -4.50504,-6.798945 -9.122005,-11.374002 -17,-14 -6.804603,-0.667118 -12.081095,0.916827 -16.804687,5.90625 z"
     fill="#1698e1"
     id="path1" />
  <path
     d="M 83.25,19.4375 C 87.971475,22.20129 91.018306,25.910484 93,31 94.242115,41.51577 94.242115,41.51577 92,46 80.780887,46.704866 71.616542,44.812382 62.726563,37.660156 60.000525,35.038966 58.036116,32.181431 56,29 63.162236,19.660235 71.378185,14.511718 83.25,19.4375 Z"
     fill="#fb8d19"
     id="path2" />
</svg>
