<svg version="1.1" id="Layer_1" xmlns="http://www.w3.org/2000/svg" xmlns:xlink="http://www.w3.org/1999/xlink" x="0px" y="0px"
	 width="100%" viewBox="0 0 103 88" enable-background="new 0 0 103 88" xml:space="preserve">
<path fill="#1799E1" opacity="1.000000" stroke="none" 
	d="
M70.000000,1.000000 
	C73.361290,1.000000 76.722572,1.000000 80.689896,1.343648 
	C84.097641,2.855909 87.063766,3.740242 89.669739,5.247331 
	C96.994987,9.483681 101.067307,16.336943 104.000000,24.000000 
	C104.000000,28.356899 104.000000,32.713799 103.655930,37.683929 
	C100.013718,52.352562 88.451263,59.928761 78.882324,68.918152 
	C71.313118,76.028915 62.988926,82.336021 55.000000,89.000000 
	C53.611111,89.000000 52.222221,89.000000 50.316422,88.669373 
	C43.981506,83.583000 38.065422,78.941483 32.365726,74.047935 
	C20.161211,63.569576 6.679295,54.168186 1.000000,38.000000 
	C1.000000,33.643101 1.000000,29.286201 1.343647,24.316689 
	C2.855909,20.902357 3.740250,17.936235 5.247336,15.330262 
	C9.483679,8.005004 16.336948,3.932698 24.000000,1.000000 
	C27.361288,1.000000 30.722574,1.000000 34.694683,1.346504 
	C41.197544,4.642961 47.089581,7.592914 52.977810,10.540960 
	C58.031712,7.708241 64.015854,4.354120 70.000000,1.000000 
M29.654066,58.930099 
	C36.387932,64.407372 43.211823,69.779495 49.803600,75.422729 
	C51.921940,77.236244 53.134747,77.172310 55.225956,75.390488 
	C62.209862,69.439789 69.524139,63.875854 76.485626,57.900208 
	C80.135818,54.766933 83.314384,51.084232 87.085701,47.265087 
	C73.476456,46.597084 62.560741,42.341095 54.619534,32.063068 
	C51.536762,28.073137 49.007416,23.651644 45.876331,19.704060 
	C42.358364,15.268711 32.214634,9.710543 25.577099,11.516706 
	C13.116699,14.907351 6.124642,31.062855 14.943707,43.216427 
	C18.993587,48.797573 24.312937,53.457554 29.654066,58.930099 
M68.892265,33.707336 
	C75.575317,35.470573 82.236687,37.322647 88.950050,38.961735 
	C92.626144,39.859264 93.812416,37.769051 94.270271,34.379330 
	C95.608376,24.472797 90.587631,15.290930 81.633698,11.805989 
	C73.055611,8.467334 63.806885,12.271444 56.936924,22.585272 
	C60.637440,26.069387 64.465866,29.673931 68.892265,33.707336 
z"/>
<path fill="#FFFFFF" opacity="1.000000" stroke="none" 
	d="
M1.000000,38.468658 
	C6.679295,54.168186 20.161211,63.569576 32.365726,74.047935 
	C38.065422,78.941483 43.981506,83.583000 49.899757,88.669373 
	C33.738453,89.000000 17.476908,89.000000 1.000000,89.000000 
	C1.000000,72.313057 1.000000,55.625187 1.000000,38.468658 
z"/>
<path fill="#FFFFFF" opacity="1.000000" stroke="none" 
	d="
M55.468658,89.000000 
	C62.988926,82.336021 71.313118,76.028915 78.882324,68.918152 
	C88.451263,59.928761 100.013718,52.352562 103.655930,38.148579 
	C104.000000,54.925282 104.000000,71.850563 104.000000,89.000000 
	C87.979805,89.000000 71.958557,89.000000 55.468658,89.000000 
z"/>
<path fill="#FFFFFF" opacity="1.000000" stroke="none" 
	d="
M23.531263,1.000000 
	C16.336948,3.932698 9.483679,8.005004 5.247336,15.330262 
	C3.740250,17.936235 2.855909,20.902357 1.343647,23.852039 
	C1.000000,16.407045 1.000000,8.814090 1.000000,1.000000 
	C8.352704,1.000000 15.707616,1.000000 23.531263,1.000000 
z"/>
<path fill="#FFFFFF" opacity="1.000000" stroke="none" 
	d="
M104.000000,23.531263 
	C101.067307,16.336943 96.994987,9.483681 89.669739,5.247331 
	C87.063766,3.740242 84.097641,2.855909 81.147964,1.343648 
	C88.592957,1.000000 96.185913,1.000000 104.000000,1.000000 
	C104.000000,8.352704 104.000000,15.707616 104.000000,23.531263 
z"/>
<path fill="#FFFFFF" opacity="1.000000" stroke="none" 
	d="
M69.531342,1.000000 
	C64.015854,4.354120 58.031712,7.708241 52.977810,10.540960 
	C47.089581,7.592914 41.197544,4.642961 35.152752,1.346504 
	C46.354229,1.000000 57.708454,1.000000 69.531342,1.000000 
z"/>
<path fill="#FFFFFF" opacity="1.000000" stroke="none" 
	d="
M29.355341,58.732681 
	C24.312937,53.457554 18.993587,48.797573 14.943707,43.216427 
	C6.124642,31.062855 13.116699,14.907351 25.577099,11.516706 
	C32.214634,9.710543 42.358364,15.268711 45.876331,19.704060 
	C49.007416,23.651644 51.536762,28.073137 54.619534,32.063068 
	C62.560741,42.341095 73.476456,46.597084 87.085701,47.265087 
	C83.314384,51.084232 80.135818,54.766933 76.485626,57.900208 
	C69.524139,63.875854 62.209862,69.439789 55.225956,75.390488 
	C53.134747,77.172310 51.921940,77.236244 49.803600,75.422729 
	C43.211823,69.779495 36.387932,64.407372 29.355341,58.732681 
z"/>
<path fill="#FB8D19" opacity="1.000000" stroke="none" 
	d="
M68.593277,33.492905 
	C64.465866,29.673931 60.637440,26.069387 56.936924,22.585272 
	C63.806885,12.271444 73.055611,8.467334 81.633698,11.805989 
	C90.587631,15.290930 95.608376,24.472797 94.270271,34.379330 
	C93.812416,37.769051 92.626144,39.859264 88.950050,38.961735 
	C82.236687,37.322647 75.575317,35.470573 68.593277,33.492905 
z"/>
</svg>