<?xml version="1.0" encoding="UTF-8" standalone="no"?>
<!-- Created with Inkscape (http://www.inkscape.org/) -->

<svg
   width="245.157mm"
   height="73.5mm"
   viewBox="0 0 245.157 73.5"
   version="1.1"
   id="svg1"
   xmlns:xlink="http://www.w3.org/1999/xlink"
   xmlns="http://www.w3.org/2000/svg"
   xmlns:svg="http://www.w3.org/2000/svg">
  <defs
     id="defs1">
    <linearGradient
       id="linear-gradient"
       x1="512.77002"
       y1="-161.47"
       x2="649.29999"
       y2="704.08002"
       gradientUnits="userSpaceOnUse">
      <stop
         offset="0"
         stop-color="#c7c7c7"
         id="stop1" />
      <stop
         offset="0.13"
         stop-color="#9a9a9a"
         id="stop2" />
      <stop
         offset="0.28"
         stop-color="#6b6b6b"
         id="stop3" />
      <stop
         offset="0.43"
         stop-color="#454545"
         id="stop4" />
      <stop
         offset="0.58"
         stop-color="#272727"
         id="stop5" />
      <stop
         offset="0.73"
         stop-color="#111"
         id="stop6" />
      <stop
         offset="0.87"
         stop-color="#040404"
         id="stop7" />
      <stop
         offset="1"
         id="stop8" />
    </linearGradient>
    <filter
       style="color-interpolation-filters:sRGB"
       id="filter48-1"
       x="-0.013295281"
       y="-0.050088517"
       width="1.0265906"
       height="1.100177">
      <feGaussianBlur
         stdDeviation="5 5"
         result="blur"
         id="feGaussianBlur48-8" />
    </filter>
    <linearGradient
       id="linear-gradient-2"
       x1="1619.36"
       y1="-161.47"
       x2="1755.89"
       y2="704.08002"
       xlink:href="#linear-gradient"
       gradientTransform="matrix(0.26458333,0,0,0.26458333,-67.67356,96.17604)" />
    <filter
       style="color-interpolation-filters:sRGB"
       id="filter80"
       x="-0.016331844"
       y="-0.060382893"
       width="1.0259703"
       height="1.1626983">
      <feFlood
         result="flood"
         in="SourceGraphic"
         flood-opacity="0.501961"
         flood-color="rgb(0,0,0)"
         id="feFlood79" />
      <feGaussianBlur
         result="blur"
         in="SourceGraphic"
         stdDeviation="0.600000"
         id="feGaussianBlur79" />
      <feOffset
         result="offset"
         in="blur"
         dx="-1.000000"
         dy="1.000000"
         id="feOffset79" />
      <feComposite
         result="comp1"
         operator="in"
         in="flood"
         in2="offset"
         id="feComposite79" />
      <feComposite
         result="comp2"
         operator="over"
         in="SourceGraphic"
         in2="comp1"
         id="feComposite80" />
    </filter>
  </defs>
  <g
     id="layer1"
     transform="translate(-295.275,-135.73125)">
    <g
       class="cls-3"
       id="g74"
       style="opacity:0.948;mix-blend-mode:multiply"
       transform="matrix(0.26458333,0,0,0.26458333,-67.67356,96.17604)">
      <path
         class="cls-34"
         d="m 2169.6509,415.11587 h -669.1878 a 116.68899,119.78276 0 0 1 -116.689,-119.79311 v 0 A 116.68899,119.78276 0 0 1 1500.4631,175.54 h 669.1878 A 116.69908,119.79312 0 0 1 2286.35,295.32276 v 0 a 116.69908,119.79312 0 0 1 -116.6991,119.79311 z"
         id="path74"
         style="display:inline;fill:#000000;fill-opacity:0.501124;stroke-width:1.02263;filter:url(#filter48-1)" />
    </g>
    <path
       class="cls-38"
       d="M 506.66541,203.80061 H 331.24666 a 30.588479,30.588479 0 0 1 -30.58848,-30.59113 v 0 A 30.588479,30.588479 0 0 1 331.24666,142.621 h 175.41875 a 30.591125,30.591125 0 0 1 30.59113,30.58848 v 0 a 30.591125,30.591125 0 0 1 -30.59113,30.59113 z"
       id="path75"
       style="fill:#1492e7;fill-opacity:1;stroke-width:0.264583" />
    <path
       class="cls-39"
       d="M 506.66541,203.80061 H 331.24666 a 30.588479,30.588479 0 0 1 -30.58848,-30.59113 v 0 A 30.588479,30.588479 0 0 1 331.24666,142.621 h 175.41875 a 30.591125,30.591125 0 0 1 30.59113,30.58848 v 0 a 30.591125,30.591125 0 0 1 -30.59113,30.59113 z"
       id="path76"
       style="mix-blend-mode:multiply;fill:#1492e7;fill-opacity:1;stroke-width:0.264583" />
    <rect
       class="cls-38"
       x="300.66876"
       y="136.26041"
       width="236.58777"
       height="61.179604"
       rx="30.588478"
       id="rect76"
       style="fill:#1492e7;fill-opacity:1;stroke-width:0.264583" />
    <path
       class="cls-40"
       d="m 331.25725,197.43738 h 12.49627 c 9.26041,-9.21015 41.25912,-45.28873 108.47916,-61.17696 h -120.9675 a 30.588479,30.588479 0 0 0 -30.58847,30.58848 v 0 a 30.588479,30.588479 0 0 0 30.58054,30.58848 z"
       id="path77"
       style="mix-blend-mode:screen;fill:url(#linear-gradient-2);stroke-width:0.264583" />
    <text
       xml:space="preserve"
       style="font-style:normal;font-variant:normal;font-weight:bold;font-stretch:normal;font-size:35.2778px;font-family:Dubai;-inkscape-font-specification:'Dubai, Bold';font-variant-ligatures:normal;font-variant-caps:normal;font-variant-numeric:normal;font-variant-east-asian:normal;text-align:center;writing-mode:lr-tb;direction:ltr;text-anchor:middle;fill:#fafafa;fill-opacity:1;stroke-width:0.110596;stroke-linecap:round;stroke-linejoin:round;stroke-miterlimit:1;stroke-opacity:0.833333;paint-order:stroke fill markers;filter:url(#filter80)"
       x="418.97021"
       y="177.78023"
       id="text48"><tspan
         id="tspan48"
         style="font-style:normal;font-variant:normal;font-weight:bold;font-stretch:normal;font-size:35.2778px;font-family:Dubai;-inkscape-font-specification:'Dubai, Bold';font-variant-ligatures:normal;font-variant-caps:normal;font-variant-numeric:normal;font-variant-east-asian:normal;fill:#fafafa;fill-opacity:1;stroke-width:0.110596"
         x="418.97021"
         y="177.78023">CONTACT</tspan></text>
  </g>
</svg>
