<?xml version="1.0" encoding="UTF-8" standalone="no"?>
<svg
   height="558.09357"
   viewBox="0.628 0.653 243.258 169.69333"
   width="797.31207"
   version="1.1"
   id="svg5"
   xmlns="http://www.w3.org/2000/svg"
   xmlns:svg="http://www.w3.org/2000/svg">
  <defs
     id="defs5" />
  <g
     fill="none"
     fill-rule="evenodd"
     id="g5"
     transform="translate(0,-0.290828)">
    <path
       d="M 238.816,27.239 C 236.03,16.79 227.787,8.548 217.3,5.723 c -18.962,-5.07 -95.043,-5.07 -95.043,-5.07 0,0 -76.042,0 -95.043,5.07 C 16.766,8.509 8.523,16.752 5.698,27.239 c -5.07,18.962 -5.07,58.55 -5.07,58.55 0,0 0,39.589 5.07,58.551 2.786,10.449 11.029,18.691 21.516,21.516 19.001,5.07 95.043,5.07 95.043,5.07 0,0 76.081,0 95.043,-5.07 10.449,-2.786 18.691,-11.029 21.516,-21.516 5.07,-18.962 5.07,-58.55 5.07,-58.55 0,0 0,-39.589 -5.07,-58.551 z"
       fill="#ff0000"
       id="path1"
       style="display:inline;opacity:1;fill:#0071d5;fill-opacity:1" />
    <path
       id="path5"
       style="fill:#009ceb;fill-opacity:1;stroke-width:0.193807;stroke-linecap:round;stroke-linejoin:round;stroke-miterlimit:1;stroke-opacity:0.833333;paint-order:stroke fill markers"
       d="M 185.92712,2.5227118 A 180.12823,125.83121 0 0 0 5.799166,128.35342 180.12823,125.83121 0 0 0 9.0747939,152.24102 C 13.08799,158.8363 19.551814,163.792 27.2138,165.856 c 19.001,5.07 95.04327,5.06986 95.04327,5.06986 0,0 76.08066,1.4e-4 95.04266,-5.06986 10.449,-2.786 18.69154,-11.02894 21.51654,-21.51594 5.07,-18.962 5.06986,-58.550135 5.06986,-58.550135 0,0 1.4e-4,-39.588732 -5.06986,-58.550732 -2.786,-10.449 -11.02954,-18.6909358 -21.51654,-21.5159358 C 212.07451,4.3261531 202.5125,3.3137264 191.39981,2.5805135 a 180.12823,125.83121 0 0 0 -5.47269,-0.057802 z" />
    <path
       d="M 97.955,122.282 161.149,85.789 97.955,49.297 Z"
       fill="#ffffff"
       id="path2"
       style="display:inline" />
  </g>
</svg>
